<svg xmlns="http://www.w3.org/2000/svg" height="40" width="40"><path d="M5.625 34.458q-.25.167-.521.167t-.479-.083q-.333-.125-.479-.417Q4 33.833 4 33.542q.042-.5.396-.917.354-.417.979-.583.583-.459 1.354-.521.771-.063 1.521-.021.375-.042.604-.125.229-.083.396-.375.167-.583.188-1.271.02-.687.229-1.271.125-.916.562-1.666.438-.75 1.313-1.167.583-.458 1.354-.521.771-.062 1.521-.021.375-.041.625-.125.25-.083.416-.375.167-.583.167-1.271 0-.687.208-1.27.125-.917.563-1.667.437-.75 1.312-1.167.584-.458 1.354-.52.771-.063 1.521-.021.375-.042.625-.125.25-.084.417-.375.167-.584.167-1.271 0-.688.208-1.271.167-.958.604-1.687.438-.73 1.313-1.146.583-.459 1.354-.521.771-.063 1.521-.021.375-.042.625-.125.25-.083.416-.375.167-.583.167-1.271 0-.687.208-1.271.167-.958.604-1.687.438-.729 1.313-1.146.583-.458 1.354-.521.771-.062 1.521-.021.458-.125.938-.083.479.042.854-.042.416-.083.75.146.333.229.458.604-.042.5-.396.917-.354.417-.979.583-.583.5-1.354.563-.771.062-1.521.021-.375.041-.625.125-.25.083-.417.375-.166.583-.166 1.27 0 .688-.209 1.271-.166.959-.604 1.688-.437.729-1.312 1.146-.584.458-1.355.521-.77.062-1.52.02-.375.042-.604.125-.23.084-.396.375-.167.584-.188 1.271-.021.688-.229 1.271-.125.917-.563 1.667-.437.75-1.312 1.166-.583.459-1.354.521-.771.063-1.521.021-.375.042-.604.125-.229.083-.396.417-.167.583-.187 1.25-.021.666-.23 1.25-.125.916-.583 1.666-.458.75-1.292 1.167-.583.458-1.375.521-.791.062-1.541.021-.375.041-.605.125-.229.083-.395.416-.167.584-.167 1.25 0 .667-.208 1.25-.167.959-.604 1.688-.438.729-1.313 1.146-.583.458-1.354.521-.771.062-1.521.02-.375.042-.729.063-.354.021-.646.187ZM10 18.333q-3.458 0-5.896-2.437Q1.667 13.458 1.667 10q0-3.5 2.437-5.917Q6.542 1.667 10 1.667q3.5 0 5.917 2.416Q18.333 6.5 18.333 10q0 3.458-2.416 5.896Q13.5 18.333 10 18.333Zm16.125 20q-1.167 0-1.979-.812-.813-.813-.813-1.979v-9.417q0-1.167.813-1.979.812-.813 1.979-.813h9.417q1.166 0 1.979.813.812.812.812 1.979v9.417q0 1.166-.812 1.979-.813.812-1.979.812Z"/></svg>